<svg height="512" viewBox="0 0 64 64" width="512" xmlns="http://www.w3.org/2000/svg"><g id="Bed"><path d="m17 45v4a2.006 2.006 0 0 1 -2 2h-6a2.006 2.006 0 0 1 -2-2v-4z" fill="#a78966"/><path d="m51 41h10v10h-10z" fill="#c6c5ca"/><path d="m51 31h10v10h-10z" fill="#57a4ff"/><path d="m57 31h4v10h-4z" fill="#2488ff"/><path d="m57 41h4v10h-4z" fill="#898890"/><path d="m60 15 1 8h-10l1-8z" fill="#ffde55"/><path d="m61 23h-4l-1-8h4z" fill="#ffd422"/><path d="m47 41v2a2.006 2.006 0 0 1 -2 2h-40a2.006 2.006 0 0 1 -2-2v-2z" fill="#57a4ff"/><path d="m47 41v2a2.006 2.006 0 0 1 -2 2h-4a2.006 2.006 0 0 0 2-2v-2z" fill="#2488ff"/><path d="m47 35v6h-44v-6a4 4 0 0 1 4-4h36a4 4 0 0 1 4 4z" fill="#e0e0e2"/><path d="m47 35v6h-4v-6a4 4 0 0 0 -4-4h4a4 4 0 0 1 4 4z" fill="#c6c5ca"/><path d="m43 45v4a2.006 2.006 0 0 1 -2 2h-6a2.006 2.006 0 0 1 -2-2v-4z" fill="#a78966"/><path d="m43 45v4a2.006 2.006 0 0 1 -2 2h-4a2.006 2.006 0 0 0 2-2v-4z" fill="#806749"/><path d="m17 45v4a2.006 2.006 0 0 1 -2 2h-4a2.006 2.006 0 0 0 2-2v-4z" fill="#806749"/><path d="m43 17v14h-36v-14a4 4 0 0 1 4-4h28a4 4 0 0 1 4 4z" fill="#bddbff"/><path d="m43 17v14h-4v-14a4 4 0 0 0 -4-4h4a4 4 0 0 1 4 4z" fill="#9bc9ff"/><rect fill="#bdfdff" height="8" rx="2" width="12" x="27" y="23"/><rect fill="#bdfdff" height="8" rx="2" width="12" x="11" y="23"/><path d="m23 25v4a2.006 2.006 0 0 1 -2 2h-4a2.006 2.006 0 0 0 2-2v-4a2.006 2.006 0 0 0 -2-2h4a2.006 2.006 0 0 1 2 2z" fill="#9bfbff"/><path d="m39 25v4a2.006 2.006 0 0 1 -2 2h-4a2.006 2.006 0 0 0 2-2v-4a2.006 2.006 0 0 0 -2-2h4a2.006 2.006 0 0 1 2 2z" fill="#9bfbff"/><path d="m61 30h-4v-6h4a1 1 0 0 0 .992-1.124l-1-8a1 1 0 0 0 -.992-.876h-8a1 1 0 0 0 -.992.876l-1 8a1 1 0 0 0 .992 1.124h4v6h-4a1 1 0 0 0 -1 1v20a1 1 0 0 0 1 1h10a1 1 0 0 0 1-1v-20a1 1 0 0 0 -1-1zm-8.117-14h6.234l.75 6h-7.734zm7.117 16v8h-8v-8zm-8 18v-8h8v8z"/><path d="m53 35h2v2h-2z"/><path d="m53 45h2v2h-2z"/><path d="m44 30.1v-13.1a5.006 5.006 0 0 0 -5-5h-28a5.006 5.006 0 0 0 -5 5v13.1a5.009 5.009 0 0 0 -4 4.9v8a3 3 0 0 0 3 3h1v3a3 3 0 0 0 3 3h6a3 3 0 0 0 3-3v-3h14v3a3 3 0 0 0 3 3h6a3 3 0 0 0 3-3v-3h1a3 3 0 0 0 3-3v-8a5.009 5.009 0 0 0 -4-4.9zm-33-16.1h28a3 3 0 0 1 3 3v13h-2.184a2.966 2.966 0 0 0 .184-1v-4a3 3 0 0 0 -3-3h-8a3 3 0 0 0 -3 3v4a2.966 2.966 0 0 0 .184 1h-2.368a2.966 2.966 0 0 0 .184-1v-4a3 3 0 0 0 -3-3h-8a3 3 0 0 0 -3 3v4a2.966 2.966 0 0 0 .184 1h-2.184v-13a3 3 0 0 1 3-3zm17 15v-4a1 1 0 0 1 1-1h8a1 1 0 0 1 1 1v4a1 1 0 0 1 -1 1h-8a1 1 0 0 1 -1-1zm-16 0v-4a1 1 0 0 1 1-1h8a1 1 0 0 1 1 1v4a1 1 0 0 1 -1 1h-8a1 1 0 0 1 -1-1zm-5 3h36a3 3 0 0 1 3 3v5h-42v-5a3 3 0 0 1 3-3zm9 17a1 1 0 0 1 -1 1h-6a1 1 0 0 1 -1-1v-3h8zm26 0a1 1 0 0 1 -1 1h-6a1 1 0 0 1 -1-1v-3h8zm3-5h-40a1 1 0 0 1 -1-1v-1h42v1a1 1 0 0 1 -1 1z"/></g></svg>